PathFileType	4	(X/Y/Z)	F:\MotionCapture\20160217\3\Generated_files\2_Test05-Dynamic.trc
DataRate	CameraRate	NumFrames	NumMarkers	Units	OrigDataRate	OrigDataStartFrame	OrigNumFrames
120.00	120.00	       4	39	mm	120.00	177	       704
Frame#	Time	Top.Head			Front.Head			Rear.Head			R.Shoulder			R.Offset			R.Elbow			R.Wrist			L.Shoulder			L.Elbow			L.Wrist			R.ASIS			L.ASIS			V.Sacral			R.Thigh			R.Knee			R.Shank			R.Ankle			R.Heel			R.Toe			L.Thigh			L.Knee			L.Shank			L.Ankle			L.Heel			L.Toe			R1			R2			R3			R4			R5			R6			R7			L1			L2			L3			L4			L5			L6			L7			V_Mid_ASIS			V_Pelvis_Origin			V_R.Hip_JC			V_L.Hip_JC			V_R.Knee_JC			V_L.Knee_JC			V_R.Ankle_JC			V_L.Ankle_JC			V_Mid_Hip			V_Mid_Shoulder			V_R.Hand			V_L.Hand			V_R.Toe_Offset_Static			V_L.Toe_Offset_Static			V_R.Toe_Offset			V_L.Toe_Offset			
		X1	Y1	Z1	X2	Y2	Z2	X3	Y3	Z3	X4	Y4	Z4	X5	Y5	Z5	X6	Y6	Z6	X7	Y7	Z7	X8	Y8	Z8	X9	Y9	Z9	X10	Y10	Z10	X11	Y11	Z11	X12	Y12	Z12	X13	Y13	Z13	X14	Y14	Z14	X15	Y15	Z15	X16	Y16	Z16	X17	Y17	Z17	X18	Y18	Z18	X19	Y19	Z19	X20	Y20	Z20	X21	Y21	Z21	X22	Y22	Z22	X23	Y23	Z23	X24	Y24	Z24	X25	Y25	Z25	X26	Y26	Z26	X27	Y27	Z27	X28	Y28	Z28	X29	Y29	Z29	X30	Y30	Z30	X31	Y31	Z31	X32	Y32	Z32	X33	Y33	Z33	X34	Y34	Z34	X35	Y35	Z35	X36	Y36	Z36	X37	Y37	Z37	X38	Y38	Z38	X39	Y39	Z39	

177	1.467	2220.98096	136.24956	1720.68262	2100.70703	135.91701	1650.60693	2321.20166	128.21690	1640.07092	2260.76978	323.49792	1409.04150	2380.99316	47.93325	1273.89246	2329.22998	427.41116	1094.62585	2221.67578	447.04205	856.02069	2214.87598	-83.58264	1416.04102	2233.87402	-187.41977	1093.41101	2129.65991	-158.60306	857.21613	2217.77173	268.72592	945.61664	2187.29932	-16.48102	933.80127	2426.75342	109.23257	946.37476	2067.14795	260.94034	627.15808	2117.72729	312.91342	496.04977	2141.50806	235.85631	265.04837	2239.98999	289.34512	109.33939	2294.18164	216.37657	92.38210	2103.97681	302.03244	72.11151	2200.42822	50.30822	598.24799	2308.19678	-3.11525	448.21097	2338.38721	79.27685	311.99820	2461.94873	17.89711	63.88107	2533.33765	71.21413	49.97914	2328.77295	24.02273	49.25790	2054.79614	297.49521	71.22492	2088.54956	269.42032	79.59583	2173.19604	214.92989	97.70584	2246.50806	196.32024	90.61986	2274.49268	265.25372	89.47410	2206.02051	306.91830	71.39838	2146.01636	329.19482	63.23493	2284.51978	50.26605	45.17945	2318.53882	62.43879	49.84626	2413.05713	106.00192	54.05773	2498.67725	104.24097	49.88560	2505.56299	32.78297	49.38018	2433.02832	1.51455	40.64469	2371.30444	-7.82615	47.31691																																																	2447.01196	284.30722	-70.20504	2789.54419	209.93723	-55.41891	2825.30957	166.87671	-116.89976	
178	1.475	2215.22412	137.42490	1719.72595	2094.23145	136.43271	1649.64832	2315.18140	128.53452	1639.16382	2256.26294	324.37537	1408.12659	2375.03979	47.99884	1273.30591	2326.24683	427.71210	1094.64514	2222.57666	449.33057	854.52496	2208.52710	-83.28143	1415.14319	2225.98779	-186.16496	1092.28174	2120.16211	-157.00468	856.84778	2212.55615	269.36118	945.55640	2182.38110	-17.06269	932.89252	2421.93408	109.42056	945.91565	2060.73999	260.21252	628.21967	2109.64648	313.10956	496.60480	2126.93188	236.24596	264.59283	2220.94409	290.39670	106.71926	2275.10205	217.42139	87.66593	2083.76392	302.31985	73.20552	2198.23877	50.69624	596.39709	2307.09131	-3.30325	447.47247	2337.38647	78.92146	311.72580	2461.83765	18.07361	63.89356	2533.34326	71.30749	50.13298	2328.74805	23.90688	49.09663	2034.25488	297.35400	72.79141	2069.27808	269.55838	81.24934	2153.99634	215.95703	96.77797	2227.29907	197.59396	87.64972	2255.62158	267.03876	85.97491	2185.64941	307.65872	69.49244	2125.52881	329.26785	62.21543	2284.40967	51.20778	45.85382	2318.20288	63.43494	50.31261	2412.92114	105.95860	53.87941	2498.58691	104.33955	49.88765	2505.54297	32.85337	49.44673	2433.09326	1.48947	40.62453	2371.25952	-8.02753	47.30693																																																	2494.10620	130.06836	32.51546	2823.64697	165.78189	-116.81164	
179	1.483	2208.88623	137.72803	1718.62158	2087.80737	137.43930	1648.37585	2309.01221	129.11111	1638.18335	2250.13135	324.37473	1406.96240	2369.33203	47.93284	1272.52258	2323.55957	428.49948	1094.63818	2223.15845	452.51541	853.15009	2201.80884	-82.37337	1414.29614	2218.19189	-185.81523	1090.71960	2111.15186	-155.10751	856.62927	2207.15234	268.60617	944.88770	2176.96167	-16.44701	931.15924	2416.92236	109.60166	945.21960	2054.57935	259.63919	628.87158	2101.17578	312.69281	497.40161	2112.81226	237.31180	265.07147	2201.51587	291.99622	103.77991	2255.76855	219.44936	83.46832	2063.60474	302.68475	74.13866	2195.88892	50.92272	594.94403	2305.91479	-3.13427	446.94385	2336.42407	78.90023	311.39059	2462.38037	17.83231	64.48304	2533.32764	71.55920	50.41424	2328.72095	23.85614	48.97195	2013.88440	296.49579	76.03310	2049.30518	270.14508	83.13416	2134.97949	216.60568	96.08444	2207.59619	199.06294	84.15348	2235.99902	268.87161	82.14822	2164.77197	308.75952	67.76333	2104.92749	330.20395	62.38079	2284.31763	51.10762	45.50098	2317.95557	63.42125	49.98046	2412.88086	105.97368	53.78541	2498.49341	104.43838	49.87743	2505.42725	32.28518	49.09503	2432.38452	3.10973	40.58151	2371.19482	-7.91566	47.13891																																																	2820.65161	164.14200	-116.66083	
180	1.492	2202.56665	138.40353	1717.64575	2081.70605	137.98476	1647.07288	2302.66138	129.67012	1637.07825	2244.35571	324.92673	1405.79358	2363.12598	48.03080	1271.82166	2320.69531	429.36945	1094.50696	2224.27710	454.28705	851.77899	2194.97876	-81.77183	1413.07019	2210.10132	-184.95499	1089.96375	2101.97388	-153.35458	855.90350	2203.08618	269.47156	943.74884	2173.25708	-15.96387	930.13379	2411.83398	110.25161	944.42419	2048.00757	258.63626	629.93335	2093.11255	312.82056	497.86847	2098.44019	236.97403	264.77649	2181.17773	292.99686	100.77541	2235.58203	221.33505	79.10823	2042.56311	303.30768	75.99121	2193.49756	50.78090	593.67499	2304.47705	-2.82443	446.37146	2335.40430	79.08020	311.13742	2462.25098	17.90480	64.61034	2533.22754	71.76010	50.73724	2328.58447	24.01292	48.84516	1993.22705	296.62582	78.87450	2028.95862	270.78729	85.38145	2115.50122	218.22678	95.21574	2188.41064	201.01781	81.44488	2215.51270	270.92554	78.67567	2144.27637	310.48917	66.97947	2083.95776	331.00912	63.04932	2284.14795	51.02148	45.09064	2317.80664	63.42564	49.79021	2412.57202	106.03133	53.51971	2498.39844	104.54272	49.98481	2505.42212	32.45282	49.27466	2432.43042	3.12620	40.68251	2371.11499	-8.07373	46.99950																																																	2819.35693	163.77332	-116.50518	
